<svg width="69" height="26" viewBox="0 0 69 26" fill="none" xmlns="http://www.w3.org/2000/svg">
<g clip-path="url(#clip0_63_570)">
<path fill-rule="evenodd" clip-rule="evenodd" d="M64.8075 10.407C64.8075 9.676 65.3845 9.079 66.0775 9.079C66.7885 9.079 67.3465 9.676 67.3465 10.407C67.3465 11.137 66.7885 11.734 66.0765 11.734C65.3845 11.754 64.8065 11.157 64.8065 10.407H64.8075ZM66.0775 11.445C66.6155 11.445 67.0385 10.984 67.0385 10.426C67.0385 9.868 66.5965 9.406 66.0765 9.406C65.5385 9.406 65.1155 9.868 65.1155 10.426C65.1155 10.984 65.5375 11.446 66.0765 11.446L66.0775 11.445ZM65.9035 11.003H65.6335V9.83H66.1155C66.2115 9.83 66.3265 9.83 66.4035 9.887C66.4995 9.945 66.5385 10.06 66.5385 10.176C66.5385 10.31 66.4615 10.426 66.3465 10.464L66.5575 10.984H66.2685L66.0965 10.522H65.9035V11.003ZM65.9035 10.349H66.0575C66.1155 10.349 66.1725 10.349 66.2115 10.33C66.2495 10.31 66.2685 10.253 66.2685 10.195C66.2685 10.157 66.2495 10.099 66.2115 10.08C66.1725 10.06 66.0965 10.06 66.0575 10.06H65.9225L65.9035 10.35V10.349ZM46.6295 1.539L46.2825 3.809C45.5325 3.405 44.9745 3.251 44.3785 3.251C42.8005 3.251 41.6845 4.867 41.6845 7.156C41.6845 8.733 42.4345 9.696 43.6665 9.696C44.1865 9.696 44.7635 9.522 45.4745 9.156L45.1095 11.542C44.3205 11.772 43.8195 11.85 43.2235 11.85C40.9355 11.85 39.5115 10.118 39.5115 7.348C39.5115 3.616 41.4735 1 44.3015 1C44.6665 1 44.9935 1.039 45.2635 1.116L46.1475 1.346C46.3785 1.443 46.4375 1.462 46.6295 1.539ZM39.5695 3.097C39.5115 3.077 39.4345 3.077 39.3575 3.077C38.6655 3.077 38.2615 3.443 37.6075 4.463L37.7995 3.173H35.8755L34.5675 11.657H36.7035C37.4725 6.463 37.6645 5.578 38.6835 5.578H38.8375C39.0305 4.559 39.2805 3.808 39.6465 3.116L39.5695 3.097ZM26.8545 11.542C26.2765 11.734 25.8145 11.83 25.3345 11.83C24.2575 11.83 23.6605 11.176 23.6605 9.964C23.6605 9.734 23.6805 9.464 23.7185 9.194L23.8525 8.368L23.9495 7.694L24.8725 1.904H26.9885L26.7385 3.154H27.8355L27.5275 5.214L26.4495 5.213L25.8925 8.753C25.8725 8.906 25.8535 9.022 25.8535 9.098C25.8535 9.541 26.0845 9.733 26.5845 9.733C26.8345 9.733 27.0075 9.714 27.1615 9.656L26.8545 11.542ZM18.4665 5.848C18.4665 6.925 18.9665 7.656 20.0825 8.214C20.9295 8.637 21.0825 8.771 21.0825 9.156C21.0825 9.676 20.6985 9.926 19.8715 9.926C19.2365 9.926 18.6595 9.83 17.9675 9.58L17.6775 11.542L17.7745 11.561L18.1595 11.638C18.2945 11.658 18.4665 11.695 18.7175 11.715C19.2175 11.753 19.6215 11.792 19.8905 11.792C22.1225 11.792 23.1605 10.888 23.1605 8.964C23.1605 7.81 22.7375 7.117 21.6605 6.598C20.7755 6.175 20.6785 6.078 20.6785 5.674C20.6785 5.213 21.0255 4.982 21.7185 4.982C22.1415 4.982 22.6985 5.04 23.2385 5.117L23.5455 3.155C22.9875 3.058 22.1605 2.982 21.6795 2.982C19.2755 2.982 18.4475 4.27 18.4665 5.848ZM63.5755 11.638H61.5555L61.6525 10.811C61.0755 11.465 60.4595 11.753 59.6905 11.753C58.1325 11.753 57.1125 10.349 57.1125 8.233C57.1125 5.405 58.6905 3.02 60.5755 3.02C61.4025 3.02 62.0175 3.385 62.6145 4.174L63.0755 1.192H65.1725L63.5765 11.638H63.5755ZM60.4405 9.656C61.4405 9.656 62.1335 8.483 62.1335 6.79C62.1335 5.713 61.7295 5.117 60.9985 5.117C60.0365 5.117 59.3445 6.31 59.3445 7.964C59.3445 9.079 59.7095 9.656 60.4405 9.656ZM33.5865 11.465C32.8565 11.695 32.1635 11.811 31.3935 11.811C29.0275 11.811 27.7775 10.503 27.7775 8.002C27.7775 5.079 29.3545 2.943 31.4895 2.943C33.2395 2.943 34.3565 4.155 34.3565 6.04C34.3565 6.656 34.2795 7.271 34.0865 8.137H29.8545C29.8355 8.272 29.8355 8.329 29.8355 8.407C29.8355 9.407 30.4705 9.907 31.7015 9.907C32.4515 9.907 33.1445 9.733 33.9135 9.368L33.5865 11.465ZM32.3945 6.405C32.4135 6.232 32.4135 6.079 32.4135 5.982C32.4135 5.29 32.0475 4.886 31.4135 4.886C30.7395 4.886 30.2585 5.425 30.0665 6.406H32.3945V6.405ZM9.92649 11.638H7.81049L9.02249 3.616L6.29049 11.638H4.84749L4.67449 3.674L3.38549 11.638H1.40449L3.05849 1.212H6.11749L6.19449 7.675L8.27149 1.212H11.5805L9.92649 11.638ZM15.4085 7.867C15.1785 7.848 15.0815 7.829 14.9285 7.829C13.7155 7.829 13.1185 8.272 13.1185 9.118C13.1185 9.638 13.4275 9.983 13.8885 9.983C14.7355 9.983 15.3705 9.118 15.4085 7.867ZM16.9475 11.638H15.1775L15.2165 10.753C14.6775 11.465 13.9665 11.773 12.9845 11.773C11.8305 11.773 11.0415 10.83 11.0415 9.464C11.0415 7.387 12.4265 6.194 14.7735 6.194C15.0235 6.194 15.3315 6.214 15.6395 6.252C15.6975 5.963 15.7165 5.848 15.7165 5.694C15.7165 5.136 15.3505 4.924 14.3505 4.924C13.7545 4.924 13.0615 5.021 12.5805 5.174L12.3105 5.27L12.1195 5.328L12.4075 3.424C13.4655 3.097 14.1775 2.962 14.9475 2.962C16.7745 2.962 17.7355 3.828 17.7355 5.444C17.7355 5.867 17.6975 6.174 17.5625 7.136L17.1395 10.156L17.0625 10.696L17.0055 11.119L16.9665 11.426L16.9465 11.638H16.9475ZM50.3025 7.867C50.0915 7.848 49.9755 7.829 49.8225 7.829C48.6105 7.829 47.9945 8.272 47.9945 9.118C47.9945 9.638 48.3025 9.983 48.7645 9.983C49.6295 9.983 50.2645 9.118 50.3025 7.867ZM51.8425 11.638H50.0725L50.1105 10.753C49.5725 11.465 48.8605 11.773 47.8795 11.773C46.7255 11.773 45.9365 10.83 45.9365 9.464C45.9365 7.387 47.3215 6.194 49.6685 6.194C49.8985 6.194 50.2255 6.214 50.5335 6.252C50.5915 5.963 50.6105 5.848 50.6105 5.694C50.6105 5.136 50.2455 4.924 49.2455 4.924C48.6485 4.924 47.9555 5.021 47.4755 5.174L47.1675 5.251L46.9755 5.309L47.2635 3.405C48.3215 3.078 49.0335 2.943 49.8035 2.943C51.6305 2.943 52.5925 3.809 52.5925 5.425C52.5925 5.848 52.5535 6.155 52.4195 7.117L51.9765 10.118L51.9185 10.657L51.8615 11.08L51.8225 11.369L51.8425 11.638ZM57.7855 3.097C57.7285 3.077 57.6515 3.077 57.5745 3.077C56.8815 3.077 56.4785 3.443 55.8245 4.463L56.0165 3.173H54.0925L52.7845 11.657H54.9195C55.6895 6.463 55.8815 5.578 56.9015 5.578H57.0555C57.2475 4.559 57.5165 3.808 57.8625 3.116L57.7855 3.097ZM48.8605 19.89C48.8605 21.814 48.2645 22.949 47.3215 22.949C46.6295 22.968 46.2255 22.199 46.2255 21.064C46.2255 19.717 46.8405 18.178 47.8025 18.178C48.5905 18.178 48.8605 19.005 48.8605 19.89ZM50.9575 19.91C50.9575 17.774 49.8985 16.1 47.9175 16.1C45.6285 16.1 44.1475 18.12 44.1475 21.102C44.1475 23.237 45.0325 24.988 47.1875 24.988C49.3605 24.988 50.9575 23.449 50.9575 19.909V19.91ZM44.8205 14.62L44.4935 16.89C43.7815 16.485 43.2815 16.331 42.7235 16.331C41.2435 16.331 40.2035 17.947 40.2035 20.236C40.2035 21.814 40.8965 22.776 42.0505 22.776C42.5505 22.776 43.0895 22.603 43.7435 22.237L43.3975 24.622C42.6665 24.853 42.1855 24.93 41.6275 24.93C39.4925 24.93 38.1455 23.199 38.1455 20.429C38.1455 16.697 39.9925 14.081 42.6275 14.081C42.9735 14.081 43.2625 14.119 43.5125 14.196L44.3205 14.427C44.5905 14.504 44.6475 14.523 44.8205 14.619V14.62ZM31.6825 16.158C31.6245 16.139 31.5475 16.139 31.4705 16.139C30.8165 16.139 30.4505 16.505 29.8355 17.524L30.0285 16.235H28.2385L27.0265 24.718H29.0085C29.7205 19.525 29.9125 18.64 30.8555 18.64C30.9125 18.64 30.9125 18.64 31.0095 18.66C31.1815 17.64 31.4325 16.89 31.7595 16.197L31.6825 16.158ZM57.6125 24.642H55.7275L55.8235 23.814C55.2855 24.468 54.7085 24.757 53.9775 24.757C52.5345 24.757 51.5725 23.353 51.5725 21.237C51.5725 18.409 53.0535 16.024 54.8045 16.024C55.5735 16.024 56.1705 16.389 56.7085 17.197L57.1515 14.215H59.1135L57.6135 24.642H57.6125ZM54.6705 22.64C55.6135 22.64 56.2485 21.467 56.2485 19.774C56.2485 18.697 55.8825 18.12 55.1905 18.12C54.2865 18.12 53.6505 19.293 53.6505 20.966C53.6505 22.082 53.9975 22.64 54.6705 22.64ZM13.0615 24.603C12.3885 24.833 11.7345 24.949 11.0225 24.949C8.81049 24.949 7.65649 23.641 7.65649 21.14C7.65649 18.236 9.13749 16.081 11.1185 16.081C12.7535 16.081 13.7925 17.274 13.7925 19.179C13.7925 19.794 13.7155 20.409 13.5425 21.275H9.59949C9.57949 21.41 9.57949 21.468 9.57949 21.545C9.57949 22.525 10.1765 23.025 11.3305 23.025C12.0415 23.025 12.6765 22.853 13.3885 22.487L13.0615 24.603ZM11.9455 19.543C11.9455 19.371 11.9655 19.217 11.9655 19.121C11.9655 18.428 11.6185 18.024 11.0225 18.024C10.3875 18.024 9.94549 18.563 9.75249 19.544H11.9455V19.543ZM36.6835 24.603C36.0105 24.833 35.3565 24.949 34.6445 24.949C32.4135 24.949 31.2595 23.641 31.2595 21.14C31.2595 18.236 32.7395 16.081 34.7215 16.081C36.3565 16.081 37.4145 17.274 37.4145 19.179C37.4145 19.794 37.3375 20.409 37.1645 21.275H33.2215C33.2015 21.41 33.2015 21.468 33.2015 21.545C33.2015 22.525 33.7985 23.025 34.9525 23.025C35.6645 23.025 36.2995 22.853 37.0105 22.487L36.6835 24.603ZM35.5685 19.543C35.5875 19.371 35.5875 19.217 35.5875 19.121C35.5875 18.428 35.2405 18.024 34.6445 18.024C34.0095 18.024 33.5675 18.563 33.3745 19.544H35.5685V19.543ZM64.3845 24.603C63.6915 24.833 63.0375 24.949 62.3445 24.949C60.1325 24.949 58.9595 23.641 58.9595 21.14C58.9595 18.236 60.4405 16.081 62.4415 16.081C64.0765 16.081 65.1155 17.274 65.1155 19.179C65.1155 19.794 65.0385 20.409 64.8655 21.275H60.9205C60.9005 21.41 60.9005 21.468 60.9005 21.545C60.9005 22.525 61.4975 23.025 62.6515 23.025C63.3635 23.025 63.9985 22.853 64.7105 22.487L64.3835 24.603H64.3845ZM63.2685 19.543C63.2685 19.371 63.2885 19.217 63.2885 19.121C63.2885 18.428 62.9415 18.024 62.3445 18.024C61.7095 18.024 61.2675 18.563 61.0745 19.544H63.2685V19.543ZM7.17549 16.543C6.79049 16.273 6.25249 16.063 5.52149 16.063C4.71349 16.063 4.07849 16.235 4.07849 17.081C4.07849 18.582 7.00249 18.024 7.00249 21.256C7.00249 24.199 5.07849 24.968 3.32849 24.968C2.55849 24.968 1.65449 24.718 1.00049 24.41L1.48049 22.256C1.88549 22.622 2.67449 22.872 3.34749 22.872C3.98249 22.872 4.94349 22.699 4.94349 21.602C4.94349 19.89 2.02049 20.525 2.02049 17.524C2.02049 14.774 3.73249 13.965 5.38649 13.965C6.30949 13.965 7.19449 14.1 7.69449 14.446L7.17449 16.543H7.17549ZM18.8705 24.603C18.4665 24.795 17.9095 24.93 17.1005 24.93C15.3705 24.93 14.2925 23.199 14.2925 21.083C14.2925 18.313 15.8505 16.12 18.1395 16.12C18.6395 16.12 19.4095 16.332 20.0055 16.678L19.5635 18.698C19.1405 18.409 18.6975 18.236 18.2365 18.236C17.1775 18.236 16.4085 19.217 16.4085 20.948C16.4085 21.948 16.9665 22.776 17.8325 22.776C18.3525 22.776 18.7165 22.66 19.1595 22.41L18.8715 24.603H18.8705ZM26.2965 22.468C26.2005 23.198 26.1035 23.911 26.0465 24.661H24.1405L24.2945 23.295H24.2745C23.6795 24.218 23.0635 24.853 21.9665 24.853C20.7745 24.853 20.1205 23.583 20.1205 21.949C20.1205 21.371 20.1585 21.064 20.2745 20.179L20.8135 16.255H22.9475L22.3715 20.198C22.3135 20.621 22.2365 21.044 22.2365 21.487C22.2365 21.987 22.4665 22.487 23.0445 22.449C23.9105 22.449 24.4295 21.391 24.5835 20.14L25.1795 16.255H27.2375L26.2955 22.468H26.2965ZM66.3655 24.565H66.0385V23.16H65.5765V22.853H66.8265V23.16H66.3655V24.565ZM68.5005 24.565H68.1925V23.141L67.9045 24.565H67.5965L67.3085 23.141V24.565H67.0005V22.853H67.4805L67.7505 24.199H67.7695L68.0385 22.853H68.5005V24.565Z" fill="#D3A562"/>
</g>
<defs>
<clipPath id="clip0_63_570">
<rect width="68" height="25" fill="white" transform="translate(0.824463 0.5)"/>
</clipPath>
</defs>
</svg>
