<svg width="67" height="38" viewBox="0 0 67 38" fill="none" xmlns="http://www.w3.org/2000/svg">
<path fill-rule="evenodd" clip-rule="evenodd" d="M57.213 25.2524C57.12 25.9974 56.998 26.7124 56.847 27.3974C56.211 27.1904 55.477 26.8574 54.44 26.9274C53.821 26.9674 53.09 27.2054 53.08 27.7634C53.068 28.3814 54.084 28.7494 54.65 29.0194C55.668 29.5074 56.762 30.1564 56.847 31.4794C56.912 32.4944 56.44 33.3794 55.905 33.8854C54.479 35.2334 51.315 35.3754 49.155 34.5134C49.29 33.7934 49.412 33.0614 49.522 32.3154C50.358 32.6714 51.506 33.1514 52.766 32.9954C53.339 32.9254 54.042 32.5904 54.021 32.0024C53.996 31.2844 52.656 30.8564 51.981 30.4844C51.196 30.0524 50.303 29.3324 50.254 28.2344C50.222 27.5034 50.506 26.8184 50.882 26.3514C51.997 24.9654 54.862 24.4734 57.213 25.2524ZM31.57 11.2404H34.454L32.678 22.4344H29.793L31.57 11.2404ZM24.106 13.4654L23.66 16.2744H24.494C25.304 16.2744 26.072 15.6424 26.2 14.8694C26.327 14.0974 25.767 13.4654 24.957 13.4654H24.106ZM21.574 11.2394H25.991C28.801 11.2394 29.531 12.8574 29.224 14.7904C28.968 16.4044 27.808 17.4824 26.302 17.8654L29.1 22.4344H25.478L23.38 18.0384L22.683 22.4344H19.797L21.574 11.2394ZM44.744 11.2404H47.629L45.853 22.4344H42.968L44.744 11.2404ZM49.821 11.2394H56.155L55.768 13.6734H52.32L52.016 15.5864H55.295L54.909 18.0204H51.63L51.316 20.0004H54.765L54.378 22.4344H48.045L49.821 11.2394ZM13.525 11.2394H19.858L19.472 13.6734H16.024L15.72 15.5864H18.998L18.612 18.0204H15.334L15.02 20.0004H18.468L18.082 22.4344H11.748L13.525 11.2394ZM36.639 11.2394H43.044L42.658 13.6734H39.138L38.829 15.5864H42.032L41.645 18.0204H38.443L37.743 22.4344H34.862L36.639 11.2394ZM60.35 13.6734H60.947C63.152 13.6734 64.014 15.2284 63.777 16.7294C63.457 18.7424 62.01 19.9994 60.118 19.9994H59.347L60.351 13.6734H60.35ZM57.852 11.2394H61.612C66.091 11.2394 67.112 14.6274 66.761 16.8394C66.259 19.9994 63.441 22.4344 59.836 22.4344H56.076L57.852 11.2394ZM0 9.71439H5.337L5.971 17.8474C9.5 11.7354 13.09 5.85439 16.706 0.0773926H18.446C14.619 7.45739 10.84 14.8864 7.181 22.4344H3.263L2.308 13.4644C2.07 11.2394 1.62 10.2954 0 10.0554V9.71539" fill="#D3A562"/>
<path fill-rule="evenodd" clip-rule="evenodd" d="M2.02102 5.08946L6.57102 7.01846L6.96602 12.0855H7.30302L11.433 5.09246V4.74146H2.02002L2.02102 5.08946ZM20.727 25.0665H22.594L21.964 29.4785C22.498 28.9635 23.15 28.6455 23.879 28.6455C25.377 28.6455 26.359 30.0885 26.095 31.8705C25.83 33.6525 24.418 35.0975 22.92 35.0975C22.181 35.0975 21.652 34.7645 21.29 34.2045L21.191 34.9045H19.324L20.727 25.0665ZM23.057 30.4525C23.747 30.4525 24.216 31.0845 24.104 31.8645C23.992 32.6425 23.343 33.2745 22.653 33.2745C21.963 33.2745 21.494 32.6425 21.606 31.8645C21.718 31.0845 22.368 30.4525 23.057 30.4525Z" fill="#D3A562"/>
<path fill-rule="evenodd" clip-rule="evenodd" d="M26.255 28.7955H28.496L29.498 31.9225L31.444 28.7955H33.61L27.927 37.9225H25.762L28.158 34.0745L26.255 28.7955ZM44.743 34.9015L46.384 25.0635H49.069L47.428 34.9015H44.743ZM42.499 25.0435C41.573 27.2225 40.784 29.5375 39.831 31.6885L39.551 30.3975L39.547 30.3815L39.594 30.6115C39.387 29.9325 39.034 29.2915 38.584 28.7045L38.548 28.6595C38.47 28.5575 38.386 28.4595 38.302 28.3615C38.25 28.3015 38.198 28.2425 38.144 28.1835C37.494 27.4725 36.706 26.8585 35.874 26.3725L38.261 34.8795H41.139C42.493 31.5595 43.955 28.3485 45.324 25.0435H42.5" fill="#D3A562"/>
<path fill-rule="evenodd" clip-rule="evenodd" d="M37.431 25.0445H33.041V25.2585C35.569 25.7515 38.759 27.8715 39.594 30.6115L38.652 26.0295C38.522 25.3235 38.031 25.0445 37.432 25.0445H37.431ZM62.19 27.7695L60.823 31.4265H63.033L62.19 27.7685V27.7695ZM66.265 34.9325H63.805C63.646 34.4625 63.602 33.8795 63.439 33.4145H60.091L59.463 34.9325H56.637L60.3 26.5085C60.462 26.1385 60.753 25.6345 60.875 25.4085C61.062 25.0685 61.781 25.0435 62.087 25.0435H64.119L66.265 34.9325Z" fill="#D3A562"/>
</svg>
