<svg width="194" height="56" viewBox="0 0 194 56" fill="none" xmlns="http://www.w3.org/2000/svg">
<g clip-path="url(#clip0_62_350)">
<path d="M77.7781 28.3945C77.0442 28.0965 76.0308 29.4286 75.524 29.8668C74.4406 30.7957 73.3397 31.7071 72.1864 32.5309C71.3096 33.264 70.2839 33.7964 69.1808 34.0909C67.8353 34.2837 68.2197 33.3021 68.1673 32.3381C68.1148 31.3741 66.7868 30.3751 65.9306 30.0245C65.0743 29.674 64.3055 30.971 63.7813 31.7772C63.4667 32.233 62.2959 34.3187 61.6494 34.0733C61.0028 33.8279 60.9679 31.8298 60.9504 31.2514C60.8791 30.7388 60.9489 30.2164 61.1522 29.7406C61.3554 29.2649 61.6844 28.854 62.1037 28.5522C62.5739 28.3387 63.0817 28.2209 63.5977 28.2059C64.1137 28.1908 64.6275 28.2788 65.1093 28.4645C65.5985 28.6048 67.5906 29.6213 67.2411 28.4645C66.9615 27.5531 65.3889 27.2026 64.6025 26.9572C63.4198 26.5707 62.174 26.4159 60.9329 26.5015C60.4655 26.5268 60.008 26.646 59.5874 26.8521C58.9408 27.15 58.7311 27.6583 58.2419 28.0789C57.7526 28.4996 58.3467 28.0789 57.9623 28.2542C57.5778 28.4295 57.6303 28.1666 57.4206 28.2542C57.2109 28.3419 56.9313 28.7801 56.7565 28.9904C55.9702 29.9895 55.1839 30.9885 54.3101 31.9174C53.5125 32.8409 52.5605 33.6179 51.4968 34.2135C50.6755 34.6342 49.33 35.2301 48.5261 34.494C47.4253 33.4774 47.3204 30.9885 47.1107 29.6915C46.9661 29.1173 46.8784 28.5302 46.8486 27.9387C47.0639 27.1192 47.4059 26.3385 47.8621 25.6251C48.7908 23.1943 49.2933 20.6208 49.3474 18.0182C49.5012 15.5226 49.2832 13.0179 48.7009 10.5866C48.2466 8.74626 47.3903 6.04701 45.0837 6.06454C42.7771 6.08207 42.3053 8.95655 42.1655 10.7093C42.0873 13.2173 42.2276 15.7274 42.5849 18.211C42.8645 21.0855 43.0916 23.96 43.4411 26.8345C43.5984 28.2718 43.8081 29.709 44.0527 31.1462C44.1885 32.3621 44.5251 33.5467 45.0488 34.6517C46.3943 37.1055 49.33 36.9828 51.5842 35.9137C53.992 34.6459 56.0828 32.8483 57.7002 30.6555C57.7002 32.4082 58.1196 35.9137 60.2165 36.5797C62.6804 37.3685 64.2181 33.7929 65.5985 32.4257C65.4705 33.1338 65.5836 33.8644 65.9195 34.5002C66.2555 35.136 66.7948 35.64 67.4508 35.9312C68.2857 36.0963 69.1466 36.0734 69.9716 35.8643C70.7966 35.6552 71.5649 35.265 72.2213 34.7218C73.7896 33.7441 75.269 32.6297 76.6423 31.3916C77.2889 30.8483 79.5955 29.2183 77.7781 28.4996C77.5859 28.3068 77.9878 28.5347 77.7781 28.3945ZM46.4467 24.3281C46.3069 22.9259 46.1496 21.5062 46.0098 20.0864C45.4841 16.776 45.2095 13.4304 45.1885 10.0783C45.1885 9.49992 45.1886 8.55345 45.6953 8.16785C46.2021 7.78224 46.7438 8.25547 46.971 8.81635C47.5086 10.2992 47.7807 11.8657 47.7748 13.4436C48.0997 17.1251 47.6472 20.8339 46.4467 24.3281Z" fill="#D3A562"/>
<path d="M24.1845 28.1314C24.1007 28.0884 24.0079 28.0659 23.9137 28.0659C23.8195 28.0659 23.7266 28.0884 23.6428 28.1314C23.3334 28.3413 23.0412 28.5758 22.7691 28.8326C22.3847 29.1831 21.9303 29.5687 21.4061 30.0069C20.8819 30.4451 20.3401 30.9008 19.746 31.374C19.1519 31.8472 18.5752 32.2504 17.9986 32.636C17.4872 32.9813 16.9497 33.286 16.391 33.5474C16.0052 33.7377 15.5801 33.8338 15.1503 33.8278C14.8008 33.8278 14.5911 33.6876 14.5387 33.5124C14.4934 33.2986 14.4934 33.0776 14.5387 32.8638C14.5387 32.6185 14.5387 32.3731 14.5387 32.0926C14.5509 31.9596 14.5356 31.8255 14.4935 31.6988C14.4514 31.5721 14.3834 31.4555 14.294 31.3565C14.0972 31.1169 13.881 30.8942 13.6475 30.6905L13.5252 30.6028C13.4389 30.3952 13.2933 30.2178 13.1068 30.093C12.9202 29.9683 12.7009 29.9017 12.4767 29.9017C12.2525 29.9017 12.0333 29.9683 11.8467 30.093C11.6601 30.2178 11.5145 30.3952 11.4282 30.6028C10.6768 31.7947 9.59342 33.6526 8.31779 34.0031C4.40355 35.0372 2.91823 29.9017 2.91823 26.2035C2.91823 24.1177 4.80548 9.13177 8.6673 13.093C9.75071 14.2147 9.66331 19.1574 9.73321 20.77C9.9992 23.1687 9.83948 25.5958 9.26142 27.9387C8.54498 29.9894 11.2535 29.9017 11.8476 28.2366C13.298 24.0826 12.6864 16.9665 11.568 12.7775C10.0128 6.92333 5.41705 9.46476 3.18034 13.3383C0.244651 18.4563 -1.79983 29.744 2.27169 34.7393C5.55687 38.7531 9.43615 37.2106 12.1971 33.898C12.367 34.3492 12.6358 34.7565 12.9835 35.0898C13.4757 35.5032 14.0896 35.7433 14.7309 35.7734C15.3292 35.8263 15.9311 35.7237 16.4783 35.4754C17.1595 35.1714 17.8244 34.8321 18.4704 34.4588C19.1771 34.0359 19.8597 33.5736 20.5149 33.0742C21.1964 32.5483 21.808 32.0751 22.3847 31.6019C22.9613 31.1286 23.4156 30.708 23.8001 30.3574C24.0444 30.1031 24.3137 29.874 24.6039 29.6738C24.7643 29.5164 24.8582 29.303 24.866 29.0779C24.8574 28.868 24.7841 28.666 24.6563 28.4995C24.538 28.3335 24.3741 28.2056 24.1845 28.1314Z" fill="#D3A562"/>
<path d="M13.0708 5.99429C14.5911 3.78584 17.0375 1.66501 19.4664 1.87534C20.0606 1.87534 20.0606 1.47221 19.7635 0.998974C19.5366 0.718719 19.2555 0.487305 18.9372 0.318643C18.6189 0.149981 18.27 0.0475484 17.9113 0.0174445C15.0105 -0.245466 12.2845 1.9279 10.4497 4.59207C10.0303 5.11789 12.4767 6.85313 13.0708 5.99429Z" fill="#D3A562"/>
<path d="M193.773 29.5336C193.231 28.7975 192.794 29.2707 192.305 29.7264C191.816 30.1821 190.942 30.9008 190.226 31.4792C188.587 32.7475 186.831 33.8568 184.983 34.7919C181.943 36.2642 176.735 37.088 176.246 32.4432C177.609 33.5474 180.457 34.6516 181.838 32.9515C183.218 31.2513 180.824 28.8851 179.426 28.1665C178.423 27.6387 177.272 27.4658 176.159 27.6757C175.159 27.892 174.278 28.4809 173.695 29.3233C172.337 30.7376 170.832 32.001 169.204 33.0917C167.631 34.3011 165.464 36.1239 163.315 35.861C161.166 35.5981 160.746 32.969 160.449 31.3214L160.24 29.8491C160.135 29.0779 160.03 28.8501 160.414 28.0964C160.969 27.1441 161.432 26.1404 161.795 25.0992C161.9 24.7837 162.022 23.6619 162.267 23.4691C162.511 23.2763 163.839 23.4691 164.276 23.4691H168.155C168.453 23.4691 169.239 23.5918 169.484 23.3815C169.728 23.1712 169.484 22.4175 169.047 22.2072C168.134 21.9034 167.159 21.843 166.216 22.0319C164.975 22.0319 163.752 22.0319 162.529 22.1195C163.024 19.3303 162.959 16.4699 162.337 13.7064C161.795 11.5155 160.589 9.13174 157.898 9.62251C155.906 9.99059 155.679 12.497 155.591 14.1446C155.545 16.8816 155.708 19.6181 156.081 22.3299C154.648 22.3299 153.232 22.3299 151.8 22.3299C150.367 22.3299 151.188 23.5393 152.271 23.5568C152.83 23.5568 153.372 23.5568 153.914 23.5568H155.469C155.819 23.5568 156.028 23.4691 156.186 23.7496C156.281 24.1155 156.322 24.4935 156.308 24.8714L156.465 26.1684L156.622 27.2726C156.762 27.7149 156.832 28.176 156.832 28.6397C156.745 28.9552 156.133 29.5161 155.923 29.7615C155.376 30.3797 154.792 30.965 154.176 31.5142C153.137 32.5618 151.961 33.4638 150.681 34.1959C148.934 35.195 146.33 35.9487 144.513 34.6341C144.163 34.3887 143.324 33.7577 143.237 33.2845C143.15 32.8112 143.482 32.8989 143.779 32.6009C145.684 30.8482 144.565 28.5696 142.433 27.553C140.022 26.3962 137.803 27.7984 136.038 29.3058C134.884 30.3399 133.696 31.3214 132.455 32.2328C131.529 32.8813 130.079 33.9856 128.961 33.9856C128.227 33.8979 128.297 33.4072 128.332 32.7762C128.403 32.4559 128.384 32.1218 128.276 31.8119C128.168 31.502 127.975 31.2289 127.72 31.0235C127.231 30.5028 126.635 30.096 125.972 29.8316C125.396 29.6563 125.151 29.9193 124.819 30.3574C124.487 30.7956 123.963 31.5493 123.544 32.1102C123.124 32.6711 122.53 33.8629 122.023 33.8629C121.167 33.8629 121.115 31.3214 121.132 30.7255C121.073 30.086 121.264 29.4484 121.665 28.9478C122.066 28.4473 122.646 28.123 123.281 28.0438C123.815 27.9885 124.353 28.03 124.872 28.1665C125.545 28.4464 126.241 28.6692 126.951 28.8326C127.667 28.8326 127.493 28.2191 127.143 27.8159C126.682 27.4109 126.131 27.1225 125.536 26.9746C124.127 26.41 122.612 26.1589 121.097 26.2385C120.472 26.3024 119.872 26.519 119.35 26.8694C118.923 27.2556 118.558 27.7048 118.266 28.2015C117.401 29.1184 116.427 29.9249 115.366 30.6028C113.058 32.5355 110.337 33.9089 107.415 34.6166C106.248 34.9172 105.014 34.8058 103.92 34.3011C103.386 33.8968 102.963 33.363 102.691 32.7498C102.419 32.1366 102.307 31.4642 102.365 30.7956C102.365 29.6739 102.487 28.3242 103.675 27.851C104.863 27.3777 106.104 28.4294 107.397 28.5521C108.114 28.5521 108.219 27.9387 107.747 27.4654C107.146 27.0315 106.461 26.7271 105.737 26.5715C104.518 26.1072 103.208 25.9332 101.91 26.0632C98.9047 26.4839 98.5028 30.0419 99.1669 32.4607C99.9881 35.4579 103.046 36.492 105.842 36.4394C108.965 36.2599 111.982 35.243 114.579 33.4948C115.795 32.7134 116.962 31.8588 118.074 30.9358C118.231 32.6886 118.668 36.1064 120.905 36.4044C123.142 36.7023 124.54 33.5299 125.955 32.1802C125.84 32.7433 125.881 33.3274 126.074 33.8685C126.268 34.4097 126.605 34.8873 127.051 35.249C127.496 35.6107 128.032 35.8427 128.6 35.9197C129.168 35.9968 129.746 35.9158 130.271 35.6857C132.771 34.5863 135.06 33.0558 137.034 31.1637C137.208 33.0917 137.243 36.79 139.934 36.9302C141.49 37.0178 139.934 35.1775 140.336 34.6867C140.555 34.5561 140.79 34.4559 141.035 34.3887C141.385 34.2485 141.629 34.0382 141.892 34.1784C142.154 34.3186 142.643 35.2125 142.905 35.528C143.243 35.9911 143.674 36.3773 144.171 36.6613C144.668 36.9452 145.219 37.1205 145.788 37.1756C147.142 37.283 148.501 37.0667 149.755 36.5446C152.75 35.3095 155.38 33.324 157.391 30.7781C157.251 30.8832 157.706 32.1102 157.758 32.2679C158.04 33.0755 158.428 33.8417 158.912 34.5465C159.373 35.2995 159.893 36.0145 160.467 36.6848C160.777 36.9842 161.144 37.2177 161.547 37.3713C161.949 37.5249 162.378 37.5955 162.808 37.5787C166.74 37.7189 170.654 34.6166 173.415 32.1102C173.87 37.5962 179.619 38.2973 183.9 36.9652C186.286 36.201 188.53 35.0461 190.54 33.5474C191.396 32.9164 192.288 32.2504 193.056 31.5668C193.825 30.8833 194.559 30.3925 193.895 29.4811C193.651 29.3408 193.913 29.7089 193.773 29.5336ZM176.98 29.4285C178.623 27.9737 182.048 30.9008 180.475 32.0926C179.983 32.322 179.442 32.4275 178.9 32.4C178.358 32.3725 177.831 32.2128 177.364 31.9349C177.109 31.8263 176.868 31.6849 176.648 31.5142C176.316 31.1988 176.368 31.1637 176.456 30.6905C176.508 30.215 176.717 29.7707 177.05 29.4285H176.98ZM143.377 30.7255C142.975 32.1452 140.686 32.8463 139.533 33.4247C139.158 32.2864 139.158 31.0575 139.533 29.9193C140.231 28.0789 143.988 28.5346 143.377 30.7255ZM159.348 21.1205C159.174 19.0698 158.859 17.0191 158.772 14.9509C158.772 14.3374 158.859 10.2886 160.414 11.7959C160.862 12.4802 161.116 13.274 161.148 14.092C161.274 15.0627 161.338 16.0403 161.34 17.0191C161.346 18.1321 161.282 19.2443 161.148 20.3493C161.134 20.8591 161.058 21.3653 160.921 21.8566C160.764 22.2072 160.921 22.1196 160.484 22.2072C160.047 22.2949 159.75 22.2072 159.418 22.2072L159.348 21.1205ZM159.593 23.5393H160.519C160.313 24.2556 160.062 24.9581 159.768 25.6426L159.593 23.5393Z" fill="#D3A562"/>
<path d="M31.9431 53.073H30.9994L31.1218 52.9678V55.5619V55.4392L32.4148 55.6145V55.9124H29.6015V55.6145L30.6674 55.4392L30.5626 55.5619V49.1293L30.6674 49.252L29.6015 49.1293V48.8313H31.0693H32.3449C32.7793 48.8157 33.211 48.906 33.6031 49.0943C33.9179 49.2473 34.1797 49.4915 34.3545 49.7953C34.521 50.1267 34.6049 50.4935 34.5991 50.8645C34.6047 51.2865 34.5024 51.7028 34.3021 52.0739C34.0855 52.4186 33.7682 52.6879 33.3934 52.8451C32.9336 53.031 32.4375 53.109 31.9431 53.073ZM32.2751 49.1819H30.9994L31.1043 49.0767V52.775L30.9819 52.6874H32.0129C32.5815 52.7169 33.1412 52.536 33.5856 52.179C33.767 52.0061 33.9092 51.7961 34.0027 51.5633C34.0961 51.3304 34.1387 51.0802 34.1273 50.8295C34.141 50.6071 34.1076 50.3844 34.0293 50.1759C33.951 49.9675 33.8296 49.778 33.673 49.6201C33.2829 49.2947 32.7804 49.1372 32.2751 49.1819Z" fill="#231F20"/>
<path d="M35.9447 55.9122V55.6143L36.9058 55.4565L36.8184 55.5617V50.8994L36.9058 51.0046L35.9447 50.8468V50.5664H37.2029V51.5829C37.464 51.2918 37.7639 51.0382 38.0941 50.8293C38.3822 50.65 38.7161 50.5586 39.0551 50.5664C39.2862 50.5683 39.5157 50.6037 39.7367 50.6715V51.951H39.4046L39.2998 50.8819V51.022H39.125H38.9503C38.6401 51.0252 38.3372 51.1164 38.0766 51.285C37.767 51.48 37.4899 51.7225 37.2553 52.0036V51.8283V55.7019L37.1504 55.5967L38.3037 55.7545V56.0525L35.9447 55.9122Z" fill="#231F20"/>
<path d="M43.0393 55.9825C42.6326 55.9908 42.2322 55.8812 41.886 55.667C41.5286 55.4562 41.2471 55.1371 41.0822 54.7555C40.8824 54.2974 40.7869 53.8005 40.8026 53.3008C40.7926 52.7828 40.894 52.2686 41.0997 51.7934C41.2742 51.3941 41.5592 51.0535 41.921 50.8118C42.2944 50.568 42.7338 50.4456 43.1791 50.4613C43.5739 50.4395 43.9654 50.5438 44.2974 50.7593C44.6019 50.9513 44.8399 51.2329 44.979 51.5656C45.1393 51.948 45.2167 52.3602 45.2061 52.7749V52.9327C45.1968 53.0084 45.1968 53.0848 45.2061 53.1605H41.1346V52.7749H44.7868H44.6994C44.7068 52.4365 44.6596 52.0992 44.5596 51.7759C44.4766 51.4904 44.3053 51.2387 44.0703 51.0573C43.8062 50.8533 43.4767 50.7536 43.1442 50.7768C42.7897 50.7725 42.4423 50.8764 42.1481 51.0747C41.8745 51.3008 41.6587 51.5893 41.519 51.9161C41.3715 52.3139 41.3004 52.7361 41.3093 53.1605C41.2956 53.5925 41.373 54.0226 41.5365 54.4225C41.6662 54.7504 41.8916 55.0314 42.1831 55.2288C42.4655 55.4225 42.8022 55.5207 43.1442 55.5092C43.4478 55.5052 43.7487 55.4519 44.0353 55.3514C44.3792 55.231 44.7031 55.0597 44.9965 54.8432L45.1886 55.1411C44.8525 55.3879 44.4814 55.5829 44.0878 55.7196C43.7548 55.8637 43.4007 55.9525 43.0393 55.9825Z" fill="#231F20"/>
<path d="M51.5842 51.5129C51.8861 51.1843 52.248 50.9166 52.6502 50.7242C52.9819 50.559 53.3458 50.4692 53.7161 50.4613C53.9038 50.4528 54.0913 50.4843 54.266 50.5538C54.4407 50.6233 54.5987 50.7291 54.7296 50.8644C54.8808 51.0319 54.9961 51.2288 55.0683 51.4429C55.1404 51.657 55.1679 51.8837 55.149 52.1089V55.6144V55.4917L56.0926 55.667V55.9649H53.7161V55.667L54.6422 55.5092L54.5549 55.6144V52.2841C54.5855 51.9064 54.4732 51.531 54.2403 51.2325C54.1385 51.1265 54.0164 51.0423 53.8812 50.9851C53.7461 50.9278 53.6007 50.8987 53.454 50.8995C53.1287 50.9113 52.811 51.0015 52.5278 51.1624C52.1504 51.3468 51.8121 51.6027 51.5318 51.9161V51.7759C51.5404 51.8399 51.5404 51.9047 51.5318 51.9687C51.5414 52.0326 51.5414 52.0976 51.5318 52.1615V55.667L51.4269 55.5443L52.3706 55.7196V56.0175H50.1863V55.7196L51.1298 55.5618V55.667V52.3367C51.1605 51.959 51.0482 51.5835 50.8153 51.2851C50.7136 51.1791 50.5914 51.0949 50.4562 51.0376C50.321 50.9804 50.1757 50.9513 50.029 50.9521C49.7009 50.9671 49.3795 51.0507 49.0854 51.1975C48.7168 51.3803 48.385 51.6299 48.1068 51.9336V51.7934V55.667V55.5618L49.033 55.7196V56.0175H46.8312V55.7196L47.7922 55.5443L47.7049 55.667V51.0047L47.7922 51.1098L46.8312 50.9521V50.6717H48.0893V51.6882C48.3892 51.3618 48.7518 51.0994 49.1553 50.917C49.4819 50.757 49.8403 50.6732 50.2037 50.6717C50.51 50.664 50.8105 50.7563 51.06 50.9346C51.2865 51.0729 51.4685 51.2736 51.5842 51.5129Z" fill="#231F20"/>
<path d="M58.5564 55.5444V55.4567L59.5001 55.6145V55.9125H57.2109V55.6145L58.1546 55.4567V55.5444V50.9171V51.0048L57.2109 50.8471V50.5666H58.5739L58.5564 55.5444ZM58.2244 49.2345C58.1719 49.2343 58.1201 49.2233 58.072 49.2022C58.0239 49.1811 57.9807 49.1503 57.9449 49.1118C57.8727 49.0299 57.835 48.9231 57.84 48.8139C57.8338 48.7541 57.8399 48.6937 57.8579 48.6364C57.8759 48.5791 57.9056 48.5262 57.9449 48.4809C58.0257 48.405 58.1313 48.3614 58.2419 48.3582C58.2944 48.3584 58.3463 48.3694 58.3944 48.3905C58.4425 48.4116 58.4857 48.4423 58.5215 48.4809C58.5608 48.5262 58.5904 48.5791 58.6084 48.6364C58.6265 48.6937 58.6326 48.7541 58.6264 48.8139C58.6313 48.9231 58.5937 49.0299 58.5215 49.1118C58.4837 49.1525 58.4377 49.1846 58.3864 49.2058C58.3351 49.227 58.2798 49.2368 58.2244 49.2345Z" fill="#231F20"/>
<path d="M62.9076 55.9826C62.7052 55.9915 62.5032 55.9588 62.3138 55.8864C62.1245 55.8141 61.952 55.7037 61.8068 55.562C61.6473 55.3958 61.5257 55.1969 61.4503 54.979C61.3748 54.7612 61.3474 54.5295 61.3699 54.3V50.8997L61.4572 51.0048L60.5137 50.8471V50.5667H61.8592V54.2824C61.8422 54.4684 61.8628 54.6558 61.9199 54.8335C61.9769 55.0113 62.0692 55.1755 62.1912 55.3166C62.3049 55.4311 62.4417 55.52 62.5923 55.5774C62.743 55.6348 62.9041 55.6594 63.0649 55.6496C63.3878 55.6364 63.7038 55.5526 63.991 55.4042C64.3663 55.2239 64.7043 54.9742 64.9871 54.6681V54.8258V50.9523L65.0744 51.0749L64.1134 50.9172V50.6367H65.4764V55.6846H65.3715L66.3326 55.8073V56.0878H65.0919L65.0045 55.0712H65.0919C64.79 55.3999 64.4282 55.6676 64.026 55.8599C63.6651 55.9754 63.2849 56.0172 62.9076 55.9826Z" fill="#231F20"/>
<path d="M72.3437 51.513C72.6481 51.1871 73.0094 50.9199 73.4096 50.7243C73.7419 50.5607 74.1056 50.471 74.4756 50.4614C74.666 50.4526 74.8561 50.4839 75.0337 50.5533C75.2113 50.6228 75.3724 50.7288 75.5066 50.8645C75.6578 51.032 75.7731 51.2289 75.8453 51.443C75.9174 51.6571 75.9449 51.8838 75.926 52.109V55.6145L75.8386 55.4918L76.7822 55.6671V55.965H74.5105V55.6671L75.4542 55.5093L75.3668 55.6145V52.2842C75.3975 51.9065 75.2852 51.5311 75.0522 51.2326C74.9505 51.1266 74.8283 51.0424 74.6931 50.9851C74.558 50.9279 74.4126 50.8988 74.2659 50.8996C73.9406 50.9114 73.623 51.0016 73.3398 51.1625C72.9624 51.3469 72.6241 51.6028 72.3437 51.9162V51.776C72.3524 51.84 72.3524 51.9048 72.3437 51.9688C72.3437 51.9688 72.3437 52.0915 72.3437 52.1616V55.6671L72.2389 55.5444L73.165 55.7196V56.0176H70.9982V55.7196L71.9418 55.5619L71.837 55.6671V52.3368C71.8645 51.9621 71.7594 51.5897 71.5399 51.2852C71.4355 51.1779 71.3104 51.0929 71.1722 51.0357C71.034 50.9784 70.8856 50.95 70.7361 50.9522C70.4136 50.9676 70.0979 51.0512 69.8099 51.1975C69.4384 51.384 69.1016 51.633 68.8139 51.9337V51.7935V55.6671L68.7265 55.5619L69.6527 55.7196V56.0176H67.6956V55.7196L68.6566 55.5444L68.5693 55.6671V51.0048L68.6566 51.1099L67.6956 50.9522V50.6717H68.9537V51.6883C69.2502 51.358 69.6136 51.0951 70.0196 50.9171C70.3462 50.7571 70.7046 50.6732 71.0681 50.6717C71.3738 50.6678 71.6732 50.7597 71.9244 50.9346C72.1161 51.0835 72.2616 51.2842 72.3437 51.513Z" fill="#231F20"/>
<path d="M81.8672 55.9125V55.6145L83.0904 55.4392L82.9681 55.5794V49.0768L83.0904 49.182H80.976L81.1158 49.0593L80.9236 50.3738H80.6091V48.7788H85.8514V50.3738H85.5194L85.3446 49.0768L85.4844 49.182H83.4224L83.5447 49.0768V55.5794L83.4224 55.4392L84.6456 55.6145V55.9125H81.8672Z" fill="#231F20"/>
<path d="M86.9173 55.9122V55.6143L87.8784 55.4565V55.5617V50.8994V51.0046L86.9173 50.8468V50.5664H88.1754V51.5829C88.4366 51.2918 88.7365 51.0382 89.0667 50.8293C89.3548 50.65 89.6887 50.5586 90.0277 50.5664C90.2587 50.5683 90.4883 50.6037 90.7092 50.6715V51.951H90.3947L90.2724 50.8819V51.022H90.0976H89.9229C89.6127 51.0252 89.3098 51.1164 89.0492 51.285C88.7426 51.484 88.466 51.726 88.2279 52.0036V51.8283V55.7019L88.123 55.5967L89.2763 55.7545V56.0525L86.9173 55.9122Z" fill="#231F20"/>
<path d="M95.4973 55.5792L95.4099 55.4565L96.371 55.5968V55.8772H95.1303V54.8957C94.8372 55.1977 94.4943 55.4467 94.1168 55.6318C93.7983 55.7988 93.4452 55.8888 93.0858 55.8947C92.9064 55.9029 92.7271 55.8746 92.5589 55.8113C92.3908 55.748 92.2371 55.6512 92.1073 55.5266C91.9691 55.3766 91.8636 55.1995 91.7974 55.0064C91.7313 54.8132 91.7058 54.6084 91.7228 54.4049C91.7037 54.077 91.7894 53.7516 91.9675 53.476C92.143 53.2651 92.3822 53.1174 92.649 53.0553C92.9689 52.9744 93.2976 52.9333 93.6275 52.9326H95.1129H95.0255V51.8108C95.0429 51.6489 95.0219 51.4851 94.9642 51.3328C94.9065 51.1805 94.8137 51.044 94.6935 50.9345C94.429 50.7462 94.1086 50.6535 93.7848 50.6716C93.57 50.6467 93.353 50.6467 93.1382 50.6716L92.3869 50.8819L92.4917 50.7592V51.7232H92.1248V50.5839C92.451 50.4708 92.7835 50.3772 93.1208 50.3035C93.4209 50.2508 93.7248 50.2214 94.0295 50.2158C94.4518 50.1874 94.8712 50.3049 95.2177 50.5489C95.3729 50.6847 95.4936 50.8558 95.5696 51.0479C95.6455 51.2399 95.6747 51.4475 95.6546 51.6531L95.4973 55.5792ZM92.2121 54.44C92.1968 54.5947 92.2138 54.751 92.2619 54.8988C92.31 55.0467 92.3883 55.1829 92.4917 55.2988C92.5841 55.3943 92.6959 55.4687 92.8195 55.5171C92.9431 55.5655 93.0757 55.5867 93.2082 55.5792C93.5263 55.5721 93.8381 55.4879 94.1168 55.3339C94.4614 55.1581 94.7792 54.9338 95.0604 54.6678V54.8256V53.3007H95.1478H93.7324C93.338 53.2696 92.9432 53.3548 92.5965 53.546C92.4481 53.6396 92.3286 53.7728 92.2515 53.9307C92.1743 54.0886 92.1425 54.265 92.1597 54.44H92.2121Z" fill="#231F20"/>
<path d="M100.25 50.5667H102.277V50.8471L101.508 51.0223L101.631 50.9172L99.8833 56.0002H99.3067L97.5592 50.9172L97.6816 51.0223L96.9302 50.9172V50.6367H99.0446V50.9172L98.0136 51.0749L99.5688 55.8424L101.211 51.0749H100.233L100.25 50.5667Z" fill="#231F20"/>
<path d="M105.423 55.9825C105.016 55.9908 104.615 55.8812 104.269 55.667C103.912 55.4562 103.63 55.1371 103.465 54.7555C103.082 53.8056 103.082 52.7432 103.465 51.7934C103.635 51.3908 103.921 51.0488 104.287 50.8118C104.659 50.5659 105.099 50.4433 105.545 50.4613C105.94 50.4395 106.331 50.5438 106.663 50.7593C106.968 50.9513 107.206 51.2329 107.345 51.5656C107.505 51.948 107.583 52.3602 107.572 52.7749V52.9327C107.563 53.0084 107.563 53.0848 107.572 53.1605H103.518V52.7749H107.17C107.169 52.4371 107.122 52.101 107.03 51.7759C106.947 51.4904 106.776 51.2387 106.541 51.0573C106.277 50.8533 105.947 50.7536 105.615 50.7768C105.26 50.7725 104.913 50.8764 104.619 51.0747C104.34 51.2956 104.123 51.5856 103.99 51.9161C103.836 52.3126 103.759 52.735 103.763 53.1605C103.754 53.5938 103.837 54.024 104.007 54.4225C104.132 54.7481 104.351 55.0288 104.636 55.2288C104.928 55.4176 105.268 55.5152 105.615 55.5092C105.918 55.5052 106.219 55.4519 106.506 55.3514C106.848 55.2272 107.172 55.0562 107.467 54.8432L107.659 55.1411C107.323 55.3879 106.952 55.5829 106.558 55.7196C106.198 55.8733 105.814 55.9623 105.423 55.9825Z" fill="#231F20"/>
<path d="M110.438 55.5443V55.4566L111.381 55.6144V55.9124H109.162V55.6144L110.088 55.4566V55.5443V48.5333V48.621L109.162 48.4632V48.1653H110.508L110.438 55.5443Z" fill="#231F20"/>
<path d="M116.397 50.4964C116.385 50.7472 116.459 50.9945 116.606 51.1975C116.756 51.3848 116.948 51.5348 117.165 51.6357C117.412 51.7589 117.669 51.8587 117.934 51.9337L118.756 52.1966C119.022 52.2887 119.28 52.4061 119.524 52.5471C119.751 52.6888 119.942 52.8806 120.084 53.108C120.234 53.3745 120.307 53.6782 120.293 53.9843C120.309 54.3874 120.186 54.7837 119.944 55.1061C119.7 55.4077 119.381 55.6378 119.018 55.7722C118.62 55.917 118.2 55.9882 117.777 55.9825C117.442 55.9822 117.108 55.9469 116.781 55.8773C116.438 55.8095 116.104 55.7037 115.785 55.5618V54.0194H116.099L116.239 55.3515V55.2113C116.495 55.3329 116.765 55.4212 117.043 55.4742C117.3 55.5378 117.565 55.5673 117.829 55.5618C118.162 55.5649 118.493 55.5115 118.808 55.404C119.092 55.3014 119.341 55.1189 119.524 54.8782C119.717 54.6418 119.817 54.3423 119.804 54.0369C119.817 53.7805 119.743 53.5273 119.594 53.3183C119.445 53.126 119.254 52.9701 119.035 52.8626C118.793 52.7423 118.542 52.6426 118.284 52.5646L117.445 52.3017C117.177 52.2195 116.919 52.1078 116.676 51.9687C116.46 51.835 116.275 51.6556 116.134 51.4429C115.985 51.1822 115.913 50.8844 115.925 50.584C115.909 50.2107 116.014 49.8422 116.222 49.5324C116.443 49.2578 116.732 49.0462 117.061 48.9189C117.44 48.7738 117.843 48.7025 118.249 48.7086C118.566 48.7089 118.883 48.7442 119.192 48.8138C119.523 48.8844 119.845 48.9901 120.153 49.1293V50.6191H119.821L119.717 49.322L119.821 49.4447C119.59 49.3421 119.351 49.26 119.105 49.1994C118.844 49.1742 118.58 49.1742 118.319 49.1994C118.016 49.1919 117.714 49.2394 117.427 49.3396C117.162 49.415 116.925 49.5675 116.746 49.7778C116.545 49.9661 116.421 50.2219 116.397 50.4964Z" fill="#231F20"/>
<path d="M124.54 50.4614C124.865 50.4322 125.193 50.4805 125.497 50.6023C125.801 50.7241 126.071 50.916 126.287 51.1625C126.731 51.7155 126.95 52.4171 126.899 53.1255C126.915 53.6367 126.819 54.1452 126.619 54.6154C126.437 55.0251 126.139 55.3725 125.763 55.6145C125.367 55.869 124.904 55.9973 124.435 55.9825C124.125 55.9977 123.816 55.9442 123.529 55.8261C123.242 55.708 122.984 55.528 122.775 55.2989C122.341 54.7409 122.129 54.0414 122.181 53.3359C122.16 52.8113 122.262 52.2893 122.478 51.811C122.647 51.4037 122.932 51.0559 123.299 50.8119C123.671 50.5792 124.101 50.4576 124.54 50.4614ZM124.54 50.847C124.27 50.8327 124.001 50.8861 123.756 51.0024C123.512 51.1187 123.301 51.2942 123.142 51.513C122.801 52.0322 122.63 52.6447 122.652 53.2657C122.602 53.8872 122.768 54.507 123.124 55.0185C123.283 55.2099 123.484 55.3618 123.712 55.4621C123.939 55.5625 124.187 55.6086 124.435 55.5969C124.807 55.6122 125.174 55.5078 125.483 55.2989C125.776 55.0807 126.001 54.7826 126.13 54.4401C126.293 54.034 126.371 53.5983 126.357 53.1606C126.402 52.5396 126.235 51.9217 125.885 51.4078C125.716 51.2107 125.503 51.057 125.263 50.9594C125.023 50.8619 124.763 50.8233 124.505 50.847H124.54Z" fill="#231F20"/>
<path d="M129.677 55.5443L129.59 55.4566L130.533 55.6144V55.9124H128.314V55.6144L129.258 55.4566V55.5443V48.5333V48.621L128.314 48.4632V48.1653H129.677V55.5443Z" fill="#231F20"/>
<path d="M134.098 55.9826C133.893 55.9899 133.689 55.9564 133.497 55.8842C133.305 55.812 133.129 55.7025 132.98 55.562C132.68 55.2129 132.529 54.7596 132.56 54.3V50.8997L132.648 51.0048L131.704 50.8471V50.5667H133.049V54.2824C133.032 54.4684 133.053 54.6558 133.11 54.8335C133.167 55.0113 133.26 55.1755 133.381 55.3166C133.493 55.4297 133.626 55.5179 133.774 55.5753C133.922 55.6327 134.08 55.658 134.238 55.6496C134.567 55.6389 134.889 55.5551 135.181 55.4042C135.557 55.2239 135.895 54.9742 136.177 54.6681V54.8258V50.9523L136.282 51.0749L135.321 50.9172V50.6367H136.667V55.6846L137.628 55.8073V56.0878H136.387L136.3 55.0712H136.387C136.08 55.4017 135.712 55.6695 135.304 55.8599C134.916 55.9928 134.504 56.0348 134.098 55.9826Z" fill="#231F20"/>
<path d="M140.476 55.9824C140.205 55.986 139.942 55.8857 139.742 55.702C139.55 55.4522 139.457 55.1401 139.48 54.8256V50.8118L139.567 50.8995H138.484V50.6015H139.567L139.48 50.7242V49.3921H139.969V50.7943L139.864 50.6892H141.49V51.0572H139.882L139.987 50.9695V54.8256C139.967 55.0502 140.029 55.2745 140.162 55.4565C140.226 55.5204 140.302 55.5704 140.386 55.6036C140.471 55.6367 140.561 55.6523 140.651 55.6494C140.79 55.6747 140.932 55.6747 141.07 55.6494C141.241 55.6053 141.405 55.5405 141.56 55.4565L141.682 55.7721C141.302 55.9354 140.889 56.0074 140.476 55.9824Z" fill="#231F20"/>
<path d="M144.233 55.5444L144.146 55.4567L145.089 55.6145V55.9125H142.835V55.6145L143.779 55.4567V55.5444V50.9171V51.0048L142.835 50.8471V50.5666H144.198L144.233 55.5444ZM143.901 49.2345C143.849 49.2343 143.797 49.2233 143.749 49.2022C143.701 49.1811 143.657 49.1503 143.622 49.1118C143.549 49.0299 143.512 48.9231 143.517 48.8139C143.511 48.7541 143.517 48.6937 143.535 48.6364C143.553 48.5791 143.582 48.5262 143.622 48.4809C143.702 48.405 143.808 48.3614 143.919 48.3582C143.971 48.3584 144.023 48.3694 144.071 48.3905C144.119 48.4116 144.162 48.4423 144.198 48.4809C144.237 48.5262 144.267 48.5791 144.285 48.6364C144.303 48.6937 144.309 48.7541 144.303 48.8139C144.308 48.9231 144.27 49.0299 144.198 49.1118C144.16 49.1525 144.114 49.1846 144.063 49.2058C144.012 49.227 143.957 49.2368 143.901 49.2345Z" fill="#231F20"/>
<path d="M148.986 50.4614C149.312 50.4322 149.64 50.4805 149.943 50.6023C150.247 50.7241 150.518 50.916 150.734 51.1625C151.184 51.713 151.409 52.4148 151.363 53.1255C151.373 53.638 151.272 54.1465 151.066 54.6154C150.884 55.0251 150.586 55.3725 150.209 55.6145C149.814 55.869 149.351 55.9973 148.881 55.9825C148.574 55.9975 148.267 55.9439 147.983 55.8257C147.699 55.7075 147.445 55.5276 147.239 55.2989C146.799 54.7434 146.581 54.0437 146.627 53.3359C146.616 52.8121 146.717 52.292 146.924 51.811C147.094 51.399 147.387 51.0499 147.763 50.8119C148.128 50.5788 148.553 50.457 148.986 50.4614ZM148.986 50.847C148.719 50.8324 148.452 50.8859 148.211 51.0023C147.969 51.1187 147.761 51.2944 147.606 51.513C147.253 52.0271 147.075 52.6419 147.099 53.2657C147.048 53.8872 147.215 54.507 147.571 55.0185C147.73 55.2099 147.931 55.3618 148.158 55.4621C148.386 55.5625 148.633 55.6086 148.881 55.5969C149.253 55.6122 149.621 55.5078 149.93 55.2989C150.229 55.0824 150.459 54.7843 150.594 54.4401C150.742 54.0304 150.814 53.5964 150.803 53.1606C150.848 52.5396 150.682 51.9217 150.332 51.4078C150.163 51.2107 149.949 51.057 149.709 50.9594C149.469 50.8619 149.209 50.8233 148.951 50.847H148.986Z" fill="#231F20"/>
<path d="M152.9 55.9123V55.6144L153.861 55.4391L153.774 55.5618V50.8995L153.861 51.0047L152.9 50.8469V50.5665H154.141V51.583C154.447 51.2561 154.816 50.9939 155.224 50.8118C155.557 50.6498 155.921 50.5659 156.29 50.5665C156.696 50.5498 157.092 50.6947 157.391 50.9696C157.549 51.1325 157.669 51.3289 157.741 51.5442C157.814 51.7595 157.838 51.9884 157.811 52.2141V55.7195L157.723 55.5968L158.667 55.7721V56.0701H156.483V55.7721L157.409 55.6144V55.7195V52.3893C157.425 52.2007 157.404 52.0107 157.347 51.8303C157.29 51.6498 157.198 51.4824 157.077 51.3377C156.963 51.228 156.829 51.142 156.682 51.0848C156.535 51.0277 156.378 51.0004 156.221 51.0047C155.892 51.0176 155.57 51.1012 155.277 51.25C154.905 51.4365 154.568 51.6855 154.281 51.9862V51.8459V55.7195L154.193 55.6144L155.12 55.7721V56.0701L152.9 55.9123Z" fill="#231F20"/>
<path d="M160.676 51.8109C160.673 51.9177 160.692 52.024 160.731 52.1234C160.77 52.2229 160.829 52.3133 160.904 52.3892C161.07 52.5407 161.266 52.6543 161.48 52.7223L162.232 52.9677C162.488 53.0368 162.739 53.1247 162.983 53.2306C163.2 53.3253 163.391 53.4693 163.542 53.6512C163.705 53.8674 163.785 54.1346 163.769 54.4049C163.776 54.7201 163.677 55.0284 163.49 55.2813C163.281 55.5257 163.009 55.7076 162.703 55.8071C162.362 55.9304 162.001 55.9898 161.638 55.9824C161.387 56.0004 161.136 56.0004 160.886 55.9824L160.135 55.8071L160.222 54.5627H160.537L160.624 55.6143V55.5266L161.166 55.6318H161.742C162.015 55.6379 162.287 55.5964 162.546 55.5092C162.775 55.4443 162.98 55.3168 163.14 55.141C163.284 54.9562 163.358 54.7267 163.35 54.4925C163.356 54.3843 163.34 54.2758 163.304 54.1736C163.268 54.0713 163.213 53.9772 163.14 53.8966C162.978 53.7365 162.78 53.6164 162.564 53.546L161.812 53.3007C161.561 53.2343 161.315 53.1464 161.078 53.0378C160.848 52.9601 160.646 52.8132 160.502 52.6171C160.351 52.4027 160.277 52.1431 160.292 51.881C160.276 51.597 160.363 51.3167 160.537 51.0922C160.718 50.8768 160.953 50.7136 161.218 50.619C161.518 50.5272 161.83 50.4799 162.144 50.4788H162.861C163.129 50.5303 163.393 50.6065 163.647 50.7066V51.7232H163.315L163.175 50.8469L163.263 50.9695C162.913 50.8542 162.547 50.7951 162.179 50.7943C161.833 50.7779 161.488 50.8566 161.183 51.0221C161.032 51.0901 160.903 51.2009 160.813 51.341C160.723 51.481 160.676 51.6443 160.676 51.8109Z" fill="#231F20"/>
</g>
<defs>
<clipPath id="clip0_62_350">
<rect width="194" height="56" fill="white"/>
</clipPath>
</defs>
</svg>
